<svg width="1045" height="320" viewBox="0 0 1045 320" fill="none" xmlns="http://www.w3.org/2000/svg">
<path d="M132.537 115.821H202.047L314.627 115.821C314.627 53.833 264.223 3.58204 202.047 3.58203L149.143 3.58203L132.537 115.821Z" fill="#FFBA7B"/>
<path d="M136.727 68.6568C136.727 68.6568 183.011 68.6568 222.996 68.6568C287.175 68.6568 305.682 108.06 305.682 108.06H136.727V68.6568Z" fill="#F87AA3"/>
<path d="M55.6541 45.1406C56.3551 44.0937 56.9826 43.0108 57.6144 41.9208C69.4734 21.4604 111.482 2.33208 131.347 13.7317C139.052 18.1535 142.093 51.9407 138.567 78.2094L123.723 158.535C123.433 160.105 123.01 161.654 122.323 163.096C111.871 185.059 81.1199 196.083 58.6644 186.475C34.9223 176.316 32.5404 134.926 32.5405 106.269C32.5406 81.2424 50.9819 52.1178 55.6541 45.1406Z" fill="white"/>
<path d="M102.976 67.4627C111.054 67.4627 117.603 60.914 117.603 52.8358C117.603 50.0743 116.837 47.4915 115.507 45.2879C114.821 47.0833 113.082 48.3582 111.045 48.3582C108.407 48.3582 106.269 46.2199 106.269 43.5821C106.269 41.7762 107.271 40.2045 108.749 39.3926C106.978 38.6309 105.026 38.209 102.976 38.209C94.8976 38.209 88.3489 44.7576 88.3489 52.8358C88.3489 60.914 94.8976 67.4627 102.976 67.4627Z" fill="#152239"/>
<path fill-rule="evenodd" clip-rule="evenodd" d="M132.836 114.627L147.702 0.108824C145.84 0.0364979 143.969 0 142.09 0C63.6157 0 0 63.6157 0 142.09C0 201.22 36.119 251.914 87.4978 273.313L95.216 218.806C95.216 218.806 96.6868 259.182 110.95 280.756C120.972 282.997 131.393 284.179 142.09 284.179C156.351 284.179 170.121 282.078 183.108 278.169C146.638 237.797 146.211 164.382 160.73 114.627H132.836ZM114.555 15.3889C128.086 12.29 138.345 24.5215 136.347 38.2584L121.589 139.718C116.738 173.071 84.5778 201.737 59.9538 178.724C44.5292 164.309 34.031 138.57 43.1934 92.6984C53.9644 38.7734 89.6505 21.0925 114.555 15.3889Z" fill="#152239"/>
<path fill-rule="evenodd" clip-rule="evenodd" d="M139.597 106.866L252.537 106.866H306.866C304.887 89.9352 298.914 74.2136 289.97 60.6504C270.857 31.6648 237.914 12.5373 200.597 12.5373L153.51 12.5373L139.597 106.866ZM125.075 119.403L142.687 0L200.597 3.70083e-06C262.307 9.09571e-06 313.197 46.8139 319.463 106.866C319.893 110.986 320 115.169 320 119.403L125.075 119.403Z" fill="#152239"/>
<path d="M309.552 115.821C299.43 114.408 249.872 120.533 252.537 106.866C256.601 86.0235 270.932 68.8224 289.97 60.6504C309.124 52.4291 315.143 116.601 309.552 115.821Z" fill="#152239"/>
<path d="M318.209 319.729C318.209 319.729 147.463 335.439 147.463 127.761C251.292 127.761 311.719 218.145 318.209 319.729Z" fill="#152239"/>
<path d="M517.399 119.4V93.2002H399.999V119.4H444.799V235H472.599V119.4H517.399ZM554.082 213.8C541.082 213.8 529.082 204.2 529.082 185.8C529.082 167.2 541.082 157.8 554.082 157.8C567.082 157.8 579.082 167.2 579.082 185.8C579.082 204.4 567.082 213.8 554.082 213.8ZM554.082 133.6C524.682 133.6 502.482 155.4 502.482 185.8C502.482 216 524.682 238 554.082 238C583.482 238 605.682 216 605.682 185.8C605.682 155.4 583.482 133.6 554.082 133.6ZM684.688 235H710.088C709.688 231.6 709.088 224.8 709.088 217.2V136.6H682.488V193.8C682.488 205.2 675.688 213.2 663.888 213.2C651.488 213.2 645.888 204.4 645.888 193.4V136.6H619.288V198.8C619.288 220.2 632.888 237.6 656.688 237.6C667.088 237.6 678.488 233.6 683.888 224.4C683.888 228.4 684.288 233 684.688 235ZM775.285 158.2C788.485 158.2 794.685 166.6 797.085 174.8L820.885 166.8C816.685 150.2 801.485 133.6 774.685 133.6C746.085 133.6 723.685 155.4 723.685 185.8C723.685 216 746.485 238 775.485 238C801.685 238 817.085 221.2 821.485 204.8L798.085 197C795.885 204.6 789.085 213.6 775.485 213.6C761.885 213.6 750.285 203.6 750.285 185.8C750.285 168 761.685 158.2 775.285 158.2ZM853.469 185.4C853.469 167.4 863.869 156.8 878.069 156.8C892.069 156.8 902.269 167.4 902.269 185.4C902.269 203.4 891.869 214.8 878.069 214.8C863.669 214.8 853.469 203.2 853.469 185.4ZM902.469 222.8C902.469 227.6 903.069 232.8 903.469 235H928.869C928.669 232.8 928.069 226 928.069 217.2V136.6H902.269V148.8C899.869 143.2 891.669 133.8 874.069 133.8C845.469 133.8 826.669 156.6 826.669 185.4C826.669 215.2 845.869 237.8 874.869 237.8C888.069 237.8 898.269 231 902.469 221.6V222.8ZM977.129 178.4C977.129 167 983.929 158 995.529 158C1008.33 158 1013.73 166.6 1013.73 177.6V235H1040.33V173C1040.33 151.4 1029.13 134 1004.73 134C994.129 134 982.329 138.6 976.329 148.8V136.6H950.53V235H977.129V178.4Z" fill="#152239"/>
</svg>
